<svg width="161" height="32" viewBox="0 0 161 32" fill="none" xmlns="http://www.w3.org/2000/svg">
<path fill-rule="evenodd" clip-rule="evenodd" d="M130.381 16.2241V22.2361H127.555V16.2241C127.555 13.2181 129.859 10.5541 132.937 10.5541C136.015 10.5541 138.319 13.2181 138.319 16.2241V22.2361H135.493V16.2241C135.493 14.7841 134.449 13.3981 132.937 13.3981C131.425 13.3981 130.381 14.7841 130.381 16.2241ZM71.7905 22.2361V19.6621H76.9205V22.2361H79.7645V16.2601C79.7645 13.1101 77.3345 10.5721 74.3465 10.5721C71.3585 10.5721 68.9285 13.1101 68.9285 16.2601V22.2361H71.7905ZM49.7045 17.9701V22.2361H46.8425V10.8421H49.7045V15.1081H54.1325V10.8421H56.9945V22.2361H54.1325V17.9701H49.7045ZM68.0285 19.3741V22.2361H63.3125C60.2165 22.2361 57.8945 19.5541 57.8945 16.5481C57.8945 13.5241 60.2165 10.8421 63.3125 10.8421H68.0285V13.7041H63.3125C62.3585 13.7041 61.5305 14.2981 61.0985 15.1081H65.8865V17.9701H61.0985C61.5305 18.7981 62.3585 19.3741 63.3125 19.3741H68.0285ZM71.7905 16.8181H76.9205V16.2601C76.9205 14.6941 75.7685 13.4161 74.3465 13.4161C72.9425 13.4161 71.7905 14.6941 71.7905 16.2601V16.8181ZM86.0825 22.2361C89.0705 22.2361 91.5005 19.6801 91.5005 16.5481C91.5005 13.3981 89.0705 10.8421 86.0825 10.8421H80.6645V22.2361H86.0825ZM83.5265 19.3741H86.0825C87.5045 19.3741 88.6565 18.1141 88.6565 16.5481C88.6565 14.9821 87.5045 13.7041 86.0825 13.7041H83.5265V19.3741ZM95.2265 22.2361V19.8421H98.7185C101.167 19.8421 102.985 17.7721 102.985 15.3961C102.985 13.0201 101.167 10.9321 98.7185 10.9321H92.4005V22.2361H95.2265ZM95.2265 17.0161H98.7185C99.5825 17.0161 100.159 16.1881 100.159 15.3961C100.159 14.6041 99.5825 13.7581 98.7185 13.7581H95.2265V17.0161ZM106.747 22.2361V17.9701H111.175V22.2361H114.037V10.8421H111.175V15.1081H106.747V10.8421H103.885V22.2361H106.747ZM126.655 16.6021C126.655 19.8421 124.099 22.6141 120.805 22.6141C117.511 22.6141 114.937 19.8421 114.937 16.6021C114.937 13.3441 117.511 10.5901 120.805 10.5901C124.099 10.5901 126.655 13.3441 126.655 16.6021ZM120.805 19.7701C119.059 19.7701 117.763 18.2761 117.763 16.6021C117.763 14.9101 119.077 13.4161 120.805 13.4161C122.533 13.4161 123.829 14.9101 123.829 16.6021C123.829 18.2761 122.533 19.7701 120.805 19.7701ZM149.353 22.2361V19.3741H144.637C143.683 19.3741 142.855 18.7981 142.423 17.9701H147.211V15.1081H142.423C142.855 14.2981 143.683 13.7041 144.637 13.7041H149.353V10.8421H144.637C141.541 10.8421 139.219 13.5241 139.219 16.5481C139.219 19.5541 141.541 22.2361 144.637 22.2361H149.353ZM155.923 19.3381C155.347 20.8681 153.745 22.2361 152.053 22.2361H150.253V19.4101H152.053C152.521 19.4101 153.115 18.7441 153.259 18.3481L154.951 13.8301C155.545 12.2281 157.255 10.9321 158.983 10.9321H160.963V13.7581H158.983C158.443 13.7581 157.777 14.3341 157.597 14.8201L155.923 19.3381Z" fill="white"/>
<path fill-rule="evenodd" clip-rule="evenodd" d="M16.3925 0L32.785 11.9098L26.5236 31.1803H6.26137L0 11.9098L16.3925 0ZM30.4335 12.6731L16.3925 2.47207L2.35047 12.6731L7.71347 29.1801H25.0705L30.4335 12.6731Z" fill="white"/>
<path fill-rule="evenodd" clip-rule="evenodd" d="M16.3924 6L27.0786 13.7639L22.9968 26.3262H9.78804L5.7063 13.7639L16.3924 6ZM24.7264 14.5271L16.3924 8.47207L8.05743 14.5271L11.2404 24.3261H21.5434L24.7264 14.5271Z" fill="#FF6565"/>
<path fill-rule="evenodd" clip-rule="evenodd" d="M16.3925 13.2361L20.1967 16L18.7436 20.4722H14.0413L12.5882 16L16.3925 13.2361Z" fill="white"/>
</svg>
